<?xml version="1.0" standalone="no"?>
<!DOCTYPE svg PUBLIC "-//W3C//DTD SVG 20010904//EN"
 "http://www.w3.org/TR/2001/REC-SVG-20010904/DTD/svg10.dtd">
<svg version="1.0" xmlns="http://www.w3.org/2000/svg"
 width="700.000000pt" height="700.000000pt" viewBox="0 0 700.000000 700.000000"
 preserveAspectRatio="xMidYMid meet">
<metadata>
Created by potrace 1.14, written by Peter Selinger 2001-2017
</metadata>
<g transform="translate(0.000000,700.000000) scale(0.100000,-0.100000)"
fill="#000000" stroke="none">
<path d="M3487 6702 c-19 -547 -130 -1081 -314 -1502 -301 -690 -814 -1171
-1537 -1439 -405 -150 -953 -248 -1415 -252 -183 -2 -165 -15 29 -22 324 -12
645 -55 940 -128 1260 -310 1998 -1138 2229 -2500 37 -218 60 -435 69 -654 7
-181 19 -166 21 26 1 117 17 325 36 484 180 1452 917 2330 2219 2645 322 78
727 130 1012 130 176 0 123 17 -74 23 -550 19 -1086 132 -1511 318 -630 276
-1088 736 -1364 1369 -189 434 -317 1070 -317 1576 0 176 -17 123 -23 -74z"/>
</g>
</svg>
